<svg width="223" height="221" viewBox="0 0 223 221" fill="none" xmlns="http://www.w3.org/2000/svg">
<g clip-path="url(#clip0_1_13)">
<path d="M220.474 110.237C220.488 122.783 218.356 135.238 214.171 147.065C214.169 147.073 214.166 147.079 214.163 147.086C214.145 147.141 214.127 147.191 214.106 147.246V147.249C213.213 149.757 212.232 152.224 211.163 154.648C208.465 160.763 205.217 166.619 201.459 172.145C200.547 173.491 199.604 174.815 198.628 176.117C197.554 177.557 196.447 178.969 195.305 180.351C194.253 181.626 193.172 182.877 192.064 184.103C190.746 185.565 189.39 186.988 187.994 188.374C184.71 191.645 181.222 194.706 177.552 197.539C176.908 198.039 176.257 198.53 175.599 199.013C174.067 200.144 172.505 201.235 170.912 202.286C167.408 204.602 163.774 206.714 160.027 208.612C159.38 208.942 158.728 209.267 158.073 209.581C155.541 210.804 152.958 211.929 150.323 212.956C149.571 213.252 148.817 213.537 148.055 213.812C147.927 213.862 147.799 213.909 147.668 213.954C138.632 217.215 129.207 219.273 119.635 220.076C118.969 220.136 118.303 220.187 117.637 220.228C116.93 220.277 116.222 220.318 115.513 220.348C114.953 220.377 114.395 220.398 113.832 220.414C113.717 220.419 113.599 220.424 113.484 220.424C112.727 220.448 111.968 220.462 111.206 220.468C110.884 220.471 110.562 220.474 110.237 220.474C110.085 220.474 109.933 220.474 109.781 220.471C107.584 220.463 105.404 220.392 103.24 220.256C103.196 220.254 103.151 220.249 103.107 220.249C102.332 220.196 101.559 220.141 100.79 220.073C98.048 219.843 95.3361 219.511 92.654 219.078C92.036 218.981 91.4198 218.876 90.8053 218.764C88.1371 218.293 85.5038 217.724 82.9055 217.059C82.133 216.863 81.3649 216.658 80.6012 216.444C76.1934 215.217 71.867 213.715 67.6477 211.945C65.2257 210.929 62.849 209.831 60.5177 208.651C59.4677 208.12 58.4282 207.572 57.3991 207.007C57.1189 206.855 56.8414 206.701 56.5638 206.546C54.5371 205.415 52.5524 204.223 50.6095 202.969C49.0174 201.946 47.4551 200.881 45.9224 199.775C45.7339 199.644 45.548 199.508 45.3621 199.372C44.1864 198.515 43.0299 197.637 41.8926 196.737C39.4182 194.776 37.0319 192.716 34.7338 190.555C33.1444 189.063 31.6012 187.523 30.1044 185.936C21.3825 176.712 14.3165 166.054 9.21697 154.429C8.13293 151.954 7.13791 149.434 6.23193 146.869C6.22899 146.863 6.22721 146.857 6.2267 146.851C2.09215 135.087 -0.0133844 122.706 1.01004e-05 110.237C1.01004e-05 63.9531 28.5254 24.3307 68.9544 7.99153C83.3624 2.19331 98.8307 -0.503373 114.351 0.0772791C129.871 0.657931 145.095 4.50288 159.029 11.3615C195.436 29.3581 220.474 66.8753 220.474 110.237Z" fill="#F2F2F2"/>
<path d="M159.029 11.3614V150.666H68.9544V7.9915C83.3624 2.19328 98.8307 -0.503403 114.351 0.0772486C129.871 0.657901 145.095 4.50285 159.029 11.3614Z" fill="white"/>
<path d="M90.6303 74.8874C93.0738 70.8461 95.9693 66.5311 100.504 65.2115C105.755 63.6833 111.15 66.7191 115.725 69.7148C129.409 78.6741 142.587 88.3835 155.199 98.7983L155.185 98.9552C145.366 98.2781 135.548 97.601 125.729 96.9239C118.635 96.4347 111.298 95.878 105.029 92.5222C102.65 91.2487 100.331 89.5477 97.6352 89.4292C94.2861 89.2819 91.3659 91.621 89.071 94.0647C75.4959 108.52 71.5676 130.626 56.3378 143.327C65.9412 119.643 77.408 96.7579 90.6303 74.8874Z" fill="#F2F2F2"/>
<path d="M165.618 14.9146C165.39 14.7627 165.159 14.6187 164.932 14.4721C158.346 10.2605 151.288 6.83903 143.903 4.27842L142.19 27.9021H131.334V0.829914C130.651 0.688517 129.962 0.554977 129.273 0.429291V27.9021H116.372C109.27 27.9021 102.459 25.0808 97.4367 20.0587C92.4147 15.0367 89.5934 8.22542 89.5934 1.12321V1.12319C88.9021 1.27244 88.2161 1.43216 87.53 1.60236V27.9021H77.0222L75.3909 5.37555C67.8012 8.2863 60.5959 12.1141 53.9353 16.7737C53.8201 16.8522 53.7049 16.9334 53.5923 17.012C53.0136 17.4178 52.4428 17.8315 51.8746 18.2505V149.747H82.843L82.2958 142.166L79.2845 59.1743H139.925L136.914 142.166L136.367 149.747H166.992V15.8258C166.537 15.5168 166.078 15.2131 165.618 14.9146ZM87.5301 52.3008H78.787L77.1715 29.9654H87.5301V52.3008ZM129.273 52.3008H114.589V51.8583C114.589 51.6456 114.547 51.435 114.466 51.2385C114.384 51.042 114.265 50.8634 114.114 50.7131C113.964 50.5628 113.785 50.4437 113.588 50.3625C113.392 50.2814 113.181 50.2398 112.968 50.2401H106.585C106.372 50.24 106.162 50.2818 105.965 50.3631C105.769 50.4444 105.59 50.5636 105.44 50.7139C105.29 50.8642 105.171 51.0426 105.089 51.239C105.008 51.4353 104.966 51.6458 104.966 51.8583V52.3008H89.5934V29.9654H129.273V52.3008ZM131.334 52.3008V29.9654H142.041L140.425 52.3008H131.334Z" fill="#3F3D56"/>
<path d="M214.171 147.065C214.169 147.073 214.166 147.078 214.164 147.086C214.145 147.141 214.127 147.191 214.106 147.246V147.248C213.213 149.757 212.232 152.223 211.163 154.648L9.21722 154.428C8.13319 151.954 7.13817 149.434 6.23219 146.868C6.22925 146.863 6.22747 146.857 6.22695 146.85L214.171 147.065Z" fill="#3F3D56"/>
<path d="M138.702 147.926H103.353V152.64H138.702V147.926Z" fill="white"/>
<path d="M56.5612 194.082C56.6869 192.975 56.8606 191.874 57.0823 190.78C58.294 184.85 60.8946 179.292 64.6706 174.562C66.8308 174.682 68.7239 174.352 68.9046 170.168C68.9386 169.424 69.4911 168.778 69.6116 168.044C69.4073 168.073 69.1952 168.089 68.991 168.102C68.9255 168.105 68.8575 168.11 68.7946 168.113H68.7711C68.5443 168.123 68.3193 168.068 68.1233 167.953C67.9273 167.839 67.7686 167.67 67.6664 167.468C67.5643 167.265 67.523 167.037 67.5475 166.811C67.5721 166.586 67.6615 166.372 67.8048 166.196C67.8939 166.088 67.9829 165.979 68.0719 165.869C68.2055 165.698 68.3442 165.533 68.4804 165.366C68.4961 165.347 68.5092 165.332 68.5249 165.313C68.6794 165.122 68.8339 164.931 68.991 164.74C68.7072 164.299 68.3254 163.93 67.8755 163.661C66.3176 162.747 64.1678 163.381 63.0419 164.79C61.9133 166.198 61.6986 168.178 62.0914 169.938C62.4265 171.446 63.1571 172.828 63.9767 174.143C63.8929 174.25 63.8039 174.355 63.7201 174.465C62.1758 176.451 60.8296 178.584 59.7007 180.833C60.0202 178.338 56.1161 169.33 54.6052 167.421C52.7906 165.13 49.0724 166.13 48.753 169.037C48.7504 169.063 48.7451 169.092 48.7425 169.121C48.9677 169.246 49.1876 169.38 49.4024 169.524C49.6721 169.704 49.8811 169.962 50.0019 170.263C50.1228 170.564 50.1499 170.894 50.0797 171.211C50.0095 171.528 49.8453 171.816 49.6086 172.038C49.3718 172.259 49.0736 172.405 48.753 172.454L48.7189 172.459C45.7182 176.746 55.341 187.903 57.7526 185.4C57.1463 187.103 56.6624 188.848 56.3046 190.621C55.9835 192.184 55.7596 193.766 55.6343 195.358C55.4815 197.362 55.4912 199.375 55.6631 201.377C55.6583 201.354 55.6548 201.33 55.6526 201.307C55.1158 196.944 45.9329 190.458 43.2516 190.998C41.7067 191.309 40.1854 191.239 40.4211 192.797C40.4237 192.823 40.4289 192.846 40.4315 192.873C40.8479 193.041 41.2529 193.236 41.6439 193.457C41.8691 193.582 42.089 193.718 42.3037 193.86C42.5563 194.029 42.7559 194.266 42.8797 194.543C43.0035 194.82 43.0464 195.127 43.0035 195.428C42.9605 195.729 42.8334 196.011 42.6369 196.243C42.4404 196.475 42.1824 196.646 41.8927 196.737C43.0317 197.636 44.1882 198.514 45.3621 199.372C45.548 199.508 45.7339 199.644 45.9224 199.775C47.4542 200.88 49.0166 201.945 50.6095 202.969C52.5524 204.221 54.5371 205.413 56.5638 206.546C56.8414 206.701 57.1189 206.855 57.3991 207.007C56.6947 204.109 56.3378 201.137 56.336 198.154C56.3353 196.794 56.4105 195.434 56.5612 194.082ZM57.9935 184.727L57.9987 184.719C57.9986 184.724 57.9968 184.728 57.9935 184.732V184.727ZM55.9066 203.556L55.8254 203.375C55.828 203.242 55.828 203.111 55.8254 202.975C55.8254 202.938 55.8176 202.901 55.8176 202.865C55.849 203.098 55.8752 203.331 55.9092 203.564L55.9066 203.556ZM67.9332 203.912C67.962 203.792 67.9855 203.708 68.0143 203.587C68.0038 203.561 67.9934 203.535 67.9829 203.511C67.111 201.435 62.5077 205.622 60.5177 208.651C62.8481 209.83 65.2248 210.928 67.6477 211.945C67.8101 211.741 67.9777 211.54 68.1426 211.335C68.1583 211.317 68.1714 211.301 68.1845 211.283C68.5406 210.843 68.8994 210.408 69.2529 209.969C69.2555 209.882 69.2555 209.796 69.2555 209.712C69.252 208.451 69.0973 207.194 68.7946 205.97C68.5514 205.981 68.3106 205.918 68.1049 205.787C67.8991 205.657 67.7383 205.467 67.6443 205.242C67.5503 205.018 67.5276 204.77 67.5793 204.532C67.6309 204.294 67.7545 204.077 67.9332 203.912V203.912Z" fill="white"/>
<path d="M124.575 149.416C125.204 149.849 125.92 150.14 126.673 150.267C127.426 150.394 128.198 150.354 128.934 150.15C129.67 149.947 130.353 149.584 130.933 149.088C131.514 148.592 131.979 147.975 132.296 147.28L150.781 149.009L146.243 140.495L129.385 140.159C128.182 139.704 126.854 139.707 125.653 140.166C124.452 140.626 123.461 141.51 122.868 142.651C122.275 143.792 122.122 145.111 122.436 146.357C122.751 147.604 123.512 148.692 124.575 149.416V149.416Z" fill="#FFB6B6"/>
<path d="M143.318 148.833L168.898 151.701L168.986 151.588C169.155 151.372 185.893 129.947 188.705 124.847C190.435 121.783 191.065 118.219 190.49 114.747L190.471 114.663L190.405 114.606C189.041 113.464 187.329 112.82 185.55 112.781C183.771 112.742 182.032 113.31 180.62 114.392C173.828 119.652 168.353 126.418 164.624 134.157L162.509 138.561L143.318 140.454V148.833Z" fill="#6C63FF"/>
<path d="M122.565 208.754L117.637 220.228C116.93 220.278 116.222 220.318 115.514 220.349C114.953 220.378 114.396 220.398 113.833 220.414L113.641 220.474L113.484 220.425C112.728 220.448 111.968 220.463 111.206 220.469C110.884 220.472 110.562 220.474 110.237 220.474C110.086 220.474 109.934 220.474 109.782 220.472L110.109 219.351L110.494 218.024L112.023 212.766L114.231 205.175L117.514 206.584L122.565 208.754Z" fill="#FFB6B6"/>
<path d="M158.074 209.582C155.542 210.804 152.958 211.929 150.323 212.957L147.747 208.623L156.053 204.976L158.074 209.582Z" fill="#FFB6B6"/>
<path d="M175.599 189.886V199.014C174.068 200.145 172.505 201.236 170.912 202.287V189.886H175.599Z" fill="#CACACA"/>
<path d="M192.064 184.104C190.747 185.565 189.391 186.989 187.995 188.375C184.71 191.646 181.223 194.707 177.553 197.539H156.657C156.103 197.539 155.554 197.421 155.049 197.192C154.544 196.963 154.093 196.629 153.727 196.212L153.725 196.204C153.289 195.712 152.986 195.117 152.845 194.476L152.842 194.471C152.783 194.195 152.753 193.914 152.753 193.633V188.011C152.754 186.975 153.165 185.982 153.897 185.25C154.629 184.518 155.622 184.105 156.657 184.104H192.064Z" fill="#3F3D56"/>
<path d="M200.674 162.161L198.409 171.865C198.63 173.271 198.704 174.697 198.629 176.118C197.555 177.558 196.447 178.969 195.306 180.352C194.253 181.627 193.173 182.878 192.064 184.104C190.747 185.565 189.391 186.989 187.995 188.375C184.361 189.516 180.077 189.982 175.599 190.014C174.054 190.027 172.486 189.985 170.912 189.901C164.531 189.566 158.077 188.542 152.79 187.479C151.392 187.202 150.077 186.919 148.868 186.644C146.576 186.128 144.66 185.646 143.272 185.28C141.709 184.871 140.818 184.607 140.818 184.607L134.872 194.565L129.473 203.604L122.515 212.483C121.85 212.543 121.184 212.594 120.518 212.635C119.811 212.684 119.103 212.725 118.394 212.755C117.834 212.784 117.276 212.805 116.713 212.821L116.522 212.881L116.365 212.831L113.84 212.027L112.989 211.758L109.929 210.783C109.929 210.783 110.612 208.631 111.809 205.041C112.248 203.724 115.364 193.986 118.624 185.484C119.591 182.96 120.591 180.399 121.62 177.851C122.463 175.759 123.322 173.675 124.191 171.619C125.702 168.056 133.002 166.134 141.599 165.126C142.036 165.076 142.476 165.026 142.918 164.979C147.299 164.518 151.947 164.28 156.293 164.17C158.469 164.115 160.569 164.094 162.523 164.091C163.154 164.091 163.767 164.093 164.364 164.096H164.366C165.976 164.104 167.459 164.128 168.763 164.154C169.016 164.159 169.263 164.167 169.504 164.172H169.506C169.668 164.175 169.828 164.18 169.985 164.183C172.837 164.256 174.586 164.345 174.586 164.345L175.264 159.025L175.403 157.951L175.534 156.93V156.927L175.55 156.799L175.657 156.796L177.542 156.76L193.389 156.451L200.139 156.165L200.674 162.161Z" fill="#2F2E41"/>
<path d="M157.671 205.209C157.024 205.539 156.372 205.863 155.717 206.178C153.185 207.4 150.602 208.526 147.967 209.553C147.215 209.849 146.461 210.134 145.699 210.409C145.615 210.291 145.529 210.173 145.443 210.056C141.808 205.067 139.546 201.889 134.872 194.565C132.916 191.501 130.949 188.307 129.041 185.044L142.861 178.592L144.411 177.87L148.868 186.644L152.842 194.471L153.727 196.212L157.671 205.209Z" fill="#2F2E41"/>
<path d="M180.088 99.5153C187.12 99.5153 192.82 93.8148 192.82 86.7829C192.82 79.751 187.12 74.0506 180.088 74.0506C173.056 74.0506 167.356 79.751 167.356 86.7829C167.356 93.8148 173.056 99.5153 180.088 99.5153Z" fill="#FFB6B6"/>
<path d="M202.816 126.359C202.711 115.844 203.02 118.889 202.187 115.268C199.951 105.532 190.669 103.757 189.05 103.537C188.878 103.078 188.613 102.66 188.272 102.307C187.931 101.955 187.521 101.677 187.068 101.49C186.615 101.303 186.128 101.212 185.638 101.221C185.148 101.23 184.665 101.34 184.219 101.544L181.121 103.151C178.118 104.525 179.941 106.511 178.904 109.646L177.815 112.971L168.888 137.645L170.695 147.032L170.698 147.037L171.915 153.361L175.525 157.474L175.458 156.817L175.377 156.943L175.374 156.945L175.165 157.257C175.455 157.417 175.743 157.574 176.026 157.731C176.759 158.134 177.474 158.53 178.171 158.917C178.338 159.011 178.503 159.103 178.668 159.197H178.671C178.776 159.255 178.88 159.313 178.982 159.37C181.596 160.831 171.923 163.492 174.073 164.741C174.371 164.913 174.667 165.086 174.958 165.256C184.856 171.046 192.753 178.257 195.306 180.352C196.447 178.969 197.555 177.558 198.629 176.118C199.603 174.816 200.546 173.492 201.459 172.146C201.619 171.093 201.726 170.04 201.831 169.009C201.957 167.768 201.302 156.27 201.522 155.005C201.619 154.445 201.247 153.913 200.888 153.4C200.556 152.921 200.242 152.471 200.307 152.046C200.375 151.609 200.857 151.132 201.326 150.669C201.836 150.161 202.365 149.637 202.441 149.085C202.651 147.545 201.789 146 201.951 144.45C202.219 141.929 202.424 139.399 202.567 136.862C202.768 133.358 202.851 129.858 202.816 126.359Z" fill="#6C63FF"/>
<path d="M131.001 152.148C131.526 151.594 132.167 151.162 132.878 150.883C133.589 150.603 134.352 150.483 135.114 150.53C135.877 150.577 136.619 150.791 137.29 151.156C137.961 151.522 138.543 152.03 138.996 152.645L156.726 147.138L154.043 156.405L137.618 160.213C136.534 160.906 135.235 161.178 133.965 160.976C132.695 160.774 131.543 160.114 130.727 159.12C129.911 158.126 129.489 156.867 129.539 155.582C129.59 154.297 130.11 153.076 131.001 152.148L131.001 152.148Z" fill="#FFB6B6"/>
<path d="M152.495 157.275L185.405 150.49L176.864 152.606C176.961 152.35 186.56 126.913 187.726 121.207C188.465 117.766 188.006 114.177 186.423 111.033L186.38 110.958L186.299 110.924C184.657 110.239 182.831 110.134 181.121 110.627C179.412 111.119 177.921 112.179 176.895 113.633C171.977 120.676 168.765 128.766 167.51 137.264L166.801 142.099L155.199 145.57L152.495 157.275Z" fill="#6C63FF"/>
<path d="M91.1647 146.914C91.28 147.249 91.4989 147.54 91.7897 147.744C92.0806 147.948 92.4286 148.054 92.7837 148.048L99.7204 147.869C100.078 147.862 100.424 147.74 100.706 147.52C100.989 147.3 101.192 146.995 101.286 146.65L102.268 136.153C102.616 136.311 102.996 136.389 103.378 136.381C104.049 136.364 104.685 136.082 105.147 135.595C105.61 135.109 105.86 134.459 105.843 133.789C105.826 133.118 105.544 132.481 105.058 132.019C104.572 131.557 103.922 131.306 103.251 131.323C103.098 131.323 102.946 131.338 102.796 131.37C102.634 131.195 102.436 131.055 102.216 130.96C101.997 130.865 101.759 130.817 101.52 130.82L90.8497 131.095C90.7611 131.099 90.6731 131.109 90.5864 131.128C90.3524 131.172 90.1305 131.265 89.9356 131.401C89.7406 131.538 89.5772 131.715 89.4563 131.92C89.3354 132.125 89.2598 132.353 89.2347 132.59C89.2095 132.827 89.2353 133.066 89.3104 133.292L91.1647 146.914ZM102.469 135.44L103.168 132.939C103.247 132.65 103.249 132.345 103.173 132.055C103.207 132.055 103.237 132.039 103.271 132.039C103.75 132.029 104.213 132.21 104.559 132.541C104.905 132.872 105.106 133.327 105.117 133.806C105.129 134.285 104.949 134.749 104.619 135.096C104.289 135.443 103.835 135.645 103.356 135.657C103.046 135.667 102.74 135.592 102.469 135.44Z" fill="#2F2E41"/>
<path d="M90.5864 131.128C90.8138 132.428 93.3696 133.342 96.4428 133.183C99.2689 133.052 101.58 132.06 102.003 130.884C101.846 130.838 101.683 130.816 101.52 130.82L90.8497 131.095C90.7611 131.098 90.6731 131.109 90.5864 131.128Z" fill="#3F3D56"/>
<path d="M44.1845 121.626V144.067C44.1847 144.353 44.2984 144.627 44.5007 144.829C44.7029 145.031 44.9771 145.145 45.2631 145.145H78.5186C78.8046 145.145 79.0788 145.031 79.281 144.829C79.4832 144.627 79.5969 144.353 79.5971 144.067V121.626C79.5965 121.34 79.4826 121.066 79.2804 120.864C79.0783 120.662 78.8043 120.549 78.5186 120.548H45.2631C44.9773 120.549 44.7034 120.662 44.5012 120.864C44.2991 121.066 44.1852 121.34 44.1845 121.626Z" fill="#3F3D56"/>
<path d="M44.9647 121.905V143.79C44.9649 143.943 45.0257 144.089 45.1338 144.197C45.2418 144.305 45.3883 144.366 45.5411 144.366H78.2418C78.3946 144.366 78.541 144.305 78.6491 144.197C78.7571 144.089 78.8179 143.943 78.8182 143.79V121.905C78.8182 121.752 78.7575 121.605 78.6494 121.497C78.5414 121.389 78.3947 121.328 78.2418 121.327H45.5411C45.3881 121.328 45.2415 121.389 45.1334 121.497C45.0254 121.605 44.9647 121.752 44.9647 121.905Z" fill="#6C63FF"/>
<path d="M43.489 148.443C43.5499 148.52 43.6274 148.581 43.7155 148.624C43.8036 148.666 43.9002 148.687 43.9979 148.687H79.6067C79.7041 148.687 79.8003 148.665 79.8881 148.623C79.976 148.581 80.0535 148.52 80.1148 148.444C80.1762 148.369 80.2199 148.28 80.2428 148.186C80.2657 148.091 80.2672 147.993 80.2472 147.897L79.6945 145.272C79.6716 145.165 79.6222 145.065 79.551 144.982C79.4797 144.899 79.3888 144.835 79.2865 144.796C79.2124 144.767 79.1335 144.752 79.054 144.752H44.5485C44.4689 144.752 44.39 144.767 44.3159 144.796C44.2136 144.835 44.1227 144.899 44.0514 144.982C43.9802 145.065 43.9309 145.165 43.908 145.272L43.3552 147.897C43.3355 147.993 43.3373 148.091 43.3605 148.185C43.3836 148.28 43.4275 148.368 43.489 148.443Z" fill="#2F2E41"/>
<path d="M77.8322 145.883H78.6732C78.7438 145.883 78.8011 145.825 78.8011 145.755V145.352C78.8011 145.282 78.7438 145.225 78.6732 145.225H77.8322C77.7616 145.225 77.7043 145.282 77.7043 145.352V145.755C77.7043 145.825 77.7616 145.883 77.8322 145.883Z" fill="#3F3D56"/>
<path d="M75.6387 145.883H76.4798C76.5504 145.883 76.6076 145.825 76.6076 145.755V145.352C76.6076 145.282 76.5504 145.225 76.4798 145.225H75.6387C75.5681 145.225 75.5109 145.282 75.5109 145.352V145.755C75.5109 145.825 75.5681 145.883 75.6387 145.883Z" fill="#3F3D56"/>
<path d="M73.4452 145.883H74.2863C74.3569 145.883 74.4141 145.825 74.4141 145.755V145.352C74.4141 145.282 74.3569 145.225 74.2863 145.225H73.4452C73.3746 145.225 73.3174 145.282 73.3174 145.352V145.755C73.3174 145.825 73.3746 145.883 73.4452 145.883Z" fill="#3F3D56"/>
<path d="M71.2517 145.883H72.0928C72.1634 145.883 72.2206 145.825 72.2206 145.755V145.352C72.2206 145.282 72.1634 145.225 72.0928 145.225H71.2517C71.1811 145.225 71.1239 145.282 71.1239 145.352V145.755C71.1239 145.825 71.1811 145.883 71.2517 145.883Z" fill="#3F3D56"/>
<path d="M69.0583 145.883H69.8993C69.9699 145.883 70.0272 145.825 70.0272 145.755V145.352C70.0272 145.282 69.9699 145.225 69.8993 145.225H69.0583C68.9877 145.225 68.9304 145.282 68.9304 145.352V145.755C68.9304 145.825 68.9877 145.883 69.0583 145.883Z" fill="#3F3D56"/>
<path d="M66.8648 145.883H67.7059C67.7765 145.883 67.8337 145.825 67.8337 145.755V145.352C67.8337 145.282 67.7765 145.225 67.7059 145.225H66.8648C66.7942 145.225 66.737 145.282 66.737 145.352V145.755C66.737 145.825 66.7942 145.883 66.8648 145.883Z" fill="#3F3D56"/>
<path d="M64.6713 145.883H65.5124C65.583 145.883 65.6402 145.825 65.6402 145.755V145.352C65.6402 145.282 65.583 145.225 65.5124 145.225H64.6713C64.6007 145.225 64.5435 145.282 64.5435 145.352V145.755C64.5435 145.825 64.6007 145.883 64.6713 145.883Z" fill="#3F3D56"/>
<path d="M62.4779 145.883H63.3189C63.3895 145.883 63.4468 145.825 63.4468 145.755V145.352C63.4468 145.282 63.3895 145.225 63.3189 145.225H62.4779C62.4073 145.225 62.35 145.282 62.35 145.352V145.755C62.35 145.825 62.4073 145.883 62.4779 145.883Z" fill="#3F3D56"/>
<path d="M60.2844 145.883H61.1254C61.196 145.883 61.2533 145.825 61.2533 145.755V145.352C61.2533 145.282 61.196 145.225 61.1254 145.225H60.2844C60.2138 145.225 60.1565 145.282 60.1565 145.352V145.755C60.1565 145.825 60.2138 145.883 60.2844 145.883Z" fill="#3F3D56"/>
<path d="M58.0909 145.883H58.932C59.0026 145.883 59.0598 145.825 59.0598 145.755V145.352C59.0598 145.282 59.0026 145.225 58.932 145.225H58.0909C58.0203 145.225 57.9631 145.282 57.9631 145.352V145.755C57.9631 145.825 58.0203 145.883 58.0909 145.883Z" fill="#3F3D56"/>
<path d="M55.8974 145.883H56.7385C56.8091 145.883 56.8663 145.825 56.8663 145.755V145.352C56.8663 145.282 56.8091 145.225 56.7385 145.225H55.8974C55.8268 145.225 55.7696 145.282 55.7696 145.352V145.755C55.7696 145.825 55.8268 145.883 55.8974 145.883Z" fill="#3F3D56"/>
<path d="M53.704 145.883H54.545C54.6156 145.883 54.6729 145.825 54.6729 145.755V145.352C54.6729 145.282 54.6156 145.225 54.545 145.225H53.704C53.6334 145.225 53.5761 145.282 53.5761 145.352V145.755C53.5761 145.825 53.6334 145.883 53.704 145.883Z" fill="#3F3D56"/>
<path d="M51.5105 145.883H52.3516C52.4222 145.883 52.4794 145.825 52.4794 145.755V145.352C52.4794 145.282 52.4222 145.225 52.3516 145.225H51.5105C51.4399 145.225 51.3826 145.282 51.3826 145.352V145.755C51.3826 145.825 51.4399 145.883 51.5105 145.883Z" fill="#3F3D56"/>
<path d="M49.317 145.883H50.1581C50.2287 145.883 50.2859 145.825 50.2859 145.755V145.352C50.2859 145.282 50.2287 145.225 50.1581 145.225H49.317C49.2464 145.225 49.1892 145.282 49.1892 145.352V145.755C49.1892 145.825 49.2464 145.883 49.317 145.883Z" fill="#3F3D56"/>
<path d="M47.1235 145.883H47.9646C48.0352 145.883 48.0924 145.825 48.0924 145.755V145.352C48.0924 145.282 48.0352 145.225 47.9646 145.225H47.1235C47.0529 145.225 46.9957 145.282 46.9957 145.352V145.755C46.9957 145.825 47.0529 145.883 47.1235 145.883Z" fill="#3F3D56"/>
<path d="M44.9301 145.883H45.7711C45.8417 145.883 45.899 145.825 45.899 145.755V145.352C45.899 145.282 45.8417 145.225 45.7711 145.225H44.9301C44.8595 145.225 44.8022 145.282 44.8022 145.352V145.755C44.8022 145.825 44.8595 145.883 44.9301 145.883Z" fill="#3F3D56"/>
<path d="M77.8581 146.979H78.6992C78.7698 146.979 78.827 146.922 78.827 146.852V146.449C78.827 146.379 78.7698 146.321 78.6992 146.321H77.8581C77.7875 146.321 77.7303 146.379 77.7303 146.449V146.852C77.7303 146.922 77.7875 146.979 77.8581 146.979Z" fill="#3F3D56"/>
<path d="M75.6646 146.979H76.5057C76.5763 146.979 76.6335 146.922 76.6335 146.852V146.449C76.6335 146.379 76.5763 146.321 76.5057 146.321H75.6646C75.594 146.321 75.5368 146.379 75.5368 146.449V146.852C75.5368 146.922 75.594 146.979 75.6646 146.979Z" fill="#3F3D56"/>
<path d="M73.4711 146.979H74.3122C74.3828 146.979 74.44 146.922 74.44 146.852V146.449C74.44 146.379 74.3828 146.321 74.3122 146.321H73.4711C73.4005 146.321 73.3433 146.379 73.3433 146.449V146.852C73.3433 146.922 73.4005 146.979 73.4711 146.979Z" fill="#3F3D56"/>
<path d="M71.2777 146.979H72.1187C72.1893 146.979 72.2466 146.922 72.2466 146.852V146.449C72.2466 146.379 72.1893 146.321 72.1187 146.321H71.2777C71.2071 146.321 71.1498 146.379 71.1498 146.449V146.852C71.1498 146.922 71.2071 146.979 71.2777 146.979Z" fill="#3F3D56"/>
<path d="M69.0842 146.979H69.9253C69.9959 146.979 70.0531 146.922 70.0531 146.852V146.449C70.0531 146.379 69.9959 146.321 69.9253 146.321H69.0842C69.0136 146.321 68.9564 146.379 68.9564 146.449V146.852C68.9564 146.922 69.0136 146.979 69.0842 146.979Z" fill="#3F3D56"/>
<path d="M66.8907 146.979H67.7318C67.8024 146.979 67.8596 146.922 67.8596 146.852V146.449C67.8596 146.379 67.8024 146.321 67.7318 146.321H66.8907C66.8201 146.321 66.7629 146.379 66.7629 146.449V146.852C66.7629 146.922 66.8201 146.979 66.8907 146.979Z" fill="#3F3D56"/>
<path d="M64.6972 146.979H65.5383C65.6089 146.979 65.6661 146.922 65.6661 146.852V146.449C65.6661 146.379 65.6089 146.321 65.5383 146.321H64.6972C64.6266 146.321 64.5694 146.379 64.5694 146.449V146.852C64.5694 146.922 64.6266 146.979 64.6972 146.979Z" fill="#3F3D56"/>
<path d="M62.5038 146.979H63.3448C63.4154 146.979 63.4727 146.922 63.4727 146.852V146.449C63.4727 146.379 63.4154 146.321 63.3448 146.321H62.5038C62.4332 146.321 62.3759 146.379 62.3759 146.449V146.852C62.3759 146.922 62.4332 146.979 62.5038 146.979Z" fill="#3F3D56"/>
<path d="M60.3103 146.979H61.1514C61.222 146.979 61.2792 146.922 61.2792 146.852V146.449C61.2792 146.379 61.222 146.321 61.1514 146.321H60.3103C60.2397 146.321 60.1825 146.379 60.1825 146.449V146.852C60.1825 146.922 60.2397 146.979 60.3103 146.979Z" fill="#3F3D56"/>
<path d="M58.1168 146.979H58.9579C59.0285 146.979 59.0857 146.922 59.0857 146.852V146.449C59.0857 146.379 59.0285 146.321 58.9579 146.321H58.1168C58.0462 146.321 57.989 146.379 57.989 146.449V146.852C57.989 146.922 58.0462 146.979 58.1168 146.979Z" fill="#3F3D56"/>
<path d="M55.9233 146.979H56.7644C56.835 146.979 56.8923 146.922 56.8923 146.852V146.449C56.8923 146.379 56.835 146.321 56.7644 146.321H55.9233C55.8527 146.321 55.7955 146.379 55.7955 146.449V146.852C55.7955 146.922 55.8527 146.979 55.9233 146.979Z" fill="#3F3D56"/>
<path d="M53.7299 146.979H54.5709C54.6415 146.979 54.6988 146.922 54.6988 146.852V146.449C54.6988 146.379 54.6415 146.321 54.5709 146.321H53.7299C53.6593 146.321 53.602 146.379 53.602 146.449V146.852C53.602 146.922 53.6593 146.979 53.7299 146.979Z" fill="#3F3D56"/>
<path d="M51.5364 146.979H52.3775C52.4481 146.979 52.5053 146.922 52.5053 146.852V146.449C52.5053 146.379 52.4481 146.321 52.3775 146.321H51.5364C51.4658 146.321 51.4086 146.379 51.4086 146.449V146.852C51.4086 146.922 51.4658 146.979 51.5364 146.979Z" fill="#3F3D56"/>
<path d="M49.3429 146.979H50.184C50.2546 146.979 50.3118 146.922 50.3118 146.852V146.449C50.3118 146.379 50.2546 146.321 50.184 146.321H49.3429C49.2723 146.321 49.2151 146.379 49.2151 146.449V146.852C49.2151 146.922 49.2723 146.979 49.3429 146.979Z" fill="#3F3D56"/>
<path d="M47.1495 146.979H47.9905C48.0611 146.979 48.1184 146.922 48.1184 146.852V146.449C48.1184 146.379 48.0611 146.321 47.9905 146.321H47.1495C47.0789 146.321 47.0216 146.379 47.0216 146.449V146.852C47.0216 146.922 47.0789 146.979 47.1495 146.979Z" fill="#3F3D56"/>
<path d="M44.956 146.979H45.7971C45.8677 146.979 45.9249 146.922 45.9249 146.852V146.449C45.9249 146.379 45.8677 146.321 45.7971 146.321H44.956C44.8854 146.321 44.8281 146.379 44.8281 146.449V146.852C44.8281 146.922 44.8854 146.979 44.956 146.979Z" fill="#3F3D56"/>
<path d="M59.6523 148.296H68.1705C68.2411 148.296 68.2983 148.238 68.2983 148.168V147.765C68.2983 147.695 68.2411 147.637 68.1705 147.637H59.6523C59.5817 147.637 59.5244 147.695 59.5244 147.765V148.168C59.5244 148.238 59.5817 148.296 59.6523 148.296Z" fill="#3F3D56"/>
<path d="M123.842 147.223L138.725 134.211C139.433 133.592 138.084 135.436 138.702 136.143C139.321 136.851 141.674 136.155 140.966 136.774L126.083 149.786L122.314 150.646L123.842 147.223Z" fill="#3F3D56"/>
<path d="M123.842 147.223L124.203 146.908C124.685 147.149 125.114 147.482 125.468 147.889C125.886 148.366 126.19 148.933 126.357 149.546L126.083 149.786L123.079 150.471L122.314 150.646L122.633 149.929L123.842 147.223Z" fill="#CCCCCC"/>
<path d="M122.633 149.929C122.744 149.978 122.843 150.053 122.92 150.147C122.998 150.241 123.052 150.352 123.079 150.471L122.314 150.646L122.633 149.929Z" fill="#3F3D56"/>
<path d="M220.95 105.518C219.547 107.618 217.3 109.072 214.881 109.792C213.898 110.084 212.883 110.257 211.859 110.305C211.733 109.147 211.43 108.015 210.961 106.948C211.009 108.083 210.851 109.218 210.495 110.297C208.957 110.21 207.453 109.807 206.078 109.114C203.394 107.739 201.328 105.11 200.869 102.128C200.33 98.645 201.909 95.2253 202.48 91.748C203.053 88.2707 201.977 83.8664 198.573 82.9526C195.981 82.2561 196.271 82.5572 194.116 84.1571C196.358 87.4716 188.078 99.6177 184.69 98.5586C182.774 97.9597 181.548 96.2019 181.152 96.2019C178.489 100.789 183.504 108.519 178.45 110.124L178.867 109.708C181.917 105.956 175.541 98.0139 178.592 94.2617C179.443 93.2117 180.349 91.9679 180.097 90.6404C179.859 89.3783 177.856 88.7106 177.269 89.7475C178.325 87.3306 176.767 84.1047 174.187 83.4841C171.896 82.9316 171.938 83.6124 169.639 83.9083C169.489 82.9147 169.208 81.9454 168.804 81.0254C168.846 82.0167 168.73 83.0084 168.461 83.9633C167.649 83.9474 166.864 83.6639 166.23 83.1568C164.355 81.646 164.735 78.4724 166.408 76.7416C168.084 75.0108 170.574 74.3876 172.949 73.9844C173.639 69.1767 186.904 68.6752 188.662 73.479C189.411 69.8917 193.902 68.03 197.392 69.1429C200.883 70.2557 203.305 73.5157 204.58 76.9511C205.855 80.3839 206.211 84.0785 206.997 87.6553C207.782 91.2321 209.11 94.8744 211.843 97.3122C214.577 99.7473 219.031 100.554 221.911 98.2915C222.82 100.648 222.351 103.416 220.95 105.518Z" fill="#2F2E41"/>
</g>
<defs>
<clipPath id="clip0_1_13">
<rect width="222.378" height="220.474" fill="white"/>
</clipPath>
</defs>
</svg>