<svg width="206" height="221" viewBox="0 0 206 221" fill="none" xmlns="http://www.w3.org/2000/svg">
<g clip-path="url(#clip0_8_516)">
<path d="M110.176 191.469C163.049 191.469 205.911 148.607 205.911 95.7345C205.911 42.8618 163.049 1.52588e-05 110.176 1.52588e-05C57.3035 1.52588e-05 14.4417 42.8618 14.4417 95.7345C14.4417 148.607 57.3035 191.469 110.176 191.469Z" fill="#F2F2F2"/>
<path d="M205.915 181.224C205.915 183.19 161.301 193.842 106.268 193.842C51.2348 193.842 6.62146 183.19 6.62146 181.224C6.62146 179.259 51.2348 182.518 106.268 182.518C161.301 182.518 205.915 179.259 205.915 181.224Z" fill="#3F3D56"/>
<path opacity="0.1" d="M205.915 181.224C205.915 183.19 161.301 193.842 106.268 193.842C51.2348 193.842 6.62146 183.19 6.62146 181.224C6.62146 179.259 51.2348 182.518 106.268 182.518C161.301 182.518 205.915 179.259 205.915 181.224Z" fill="black"/>
<path d="M106.268 184.783C161.301 184.783 205.915 183.19 205.915 181.224C205.915 179.259 161.301 177.666 106.268 177.666C51.2348 177.666 6.62146 179.259 6.62146 181.224C6.62146 183.19 51.2348 184.783 106.268 184.783Z" fill="#3F3D56"/>
<path d="M201.471 180.254V148.224" stroke="#3F3D56" stroke-width="0.551784" stroke-miterlimit="10"/>
<path d="M201.471 152.754C203.972 152.754 206 150.726 206 148.224C206 145.723 203.972 143.695 201.471 143.695C198.969 143.695 196.941 145.723 196.941 148.224C196.941 150.726 198.969 152.754 201.471 152.754Z" fill="#3F3D56"/>
<path d="M201.471 167.965C201.471 167.965 200.824 154.048 187.559 155.666L201.471 167.965Z" fill="#3F3D56"/>
<path d="M18.4412 182.641V77.2498" stroke="#3F3D56" stroke-width="0.551784" stroke-miterlimit="10"/>
<path d="M18.4411 81.7286C20.9426 81.7286 22.9705 79.7007 22.9705 77.1992C22.9705 74.6976 20.9426 72.6698 18.4411 72.6698C15.9396 72.6698 13.9117 74.6976 13.9117 77.1992C13.9117 79.7007 15.9396 81.7286 18.4411 81.7286Z" fill="#3F3D56"/>
<path d="M4.52939 159.024C7.03091 159.024 9.05879 156.996 9.05879 154.495C9.05879 151.993 7.03091 149.965 4.52939 149.965C2.02788 149.965 0 151.993 0 154.495C0 156.996 2.02788 159.024 4.52939 159.024Z" fill="#3F3D56"/>
<path d="M18.4411 100.336C18.4411 100.336 17.7941 86.4187 4.52942 88.0364L18.4411 100.336Z" fill="#3F3D56"/>
<path d="M18.4411 139.788C18.4411 139.788 17.7941 125.871 4.52942 127.489L18.4411 139.788Z" fill="#3F3D56"/>
<path d="M18.4411 181.396C18.4411 181.396 21.3529 155.789 4.52942 154.495" stroke="#3F3D56" stroke-width="0.551784" stroke-miterlimit="10"/>
<path d="M32.3548 159.024C34.8563 159.024 36.8842 156.996 36.8842 154.495C36.8842 151.993 34.8563 149.965 32.3548 149.965C29.8533 149.965 27.8254 151.993 27.8254 154.495C27.8254 156.996 29.8533 159.024 32.3548 159.024Z" fill="#3F3D56"/>
<path d="M18.443 181.396C18.443 181.396 15.5313 155.789 32.3547 154.495" stroke="#3F3D56" stroke-width="0.551784" stroke-miterlimit="10"/>
<path d="M32.6306 116.537C35.1322 116.537 37.16 114.509 37.16 112.007C37.16 109.506 35.1322 107.478 32.6306 107.478C30.1291 107.478 28.1013 109.506 28.1013 112.007C28.1013 114.509 30.1291 116.537 32.6306 116.537Z" fill="#3F3D56"/>
<path d="M18.719 138.909C18.719 138.909 15.8073 113.301 32.6307 112.007" stroke="#3F3D56" stroke-width="0.551784" stroke-miterlimit="10"/>
<path d="M166.633 179.607V115.548" stroke="#3F3D56" stroke-width="0.551784" stroke-miterlimit="10"/>
<path d="M166.633 120.078C169.134 120.078 171.162 118.05 171.162 115.548C171.162 113.047 169.134 111.019 166.633 111.019C164.131 111.019 162.103 113.047 162.103 115.548C162.103 118.05 164.131 120.078 166.633 120.078Z" fill="#3F3D56"/>
<path d="M166.633 133.994C166.633 133.994 167.28 120.078 180.545 121.695L166.633 133.994Z" fill="#3F3D56"/>
<path d="M166.633 178.362C166.633 178.362 163.721 152.754 180.545 151.46" stroke="#3F3D56" stroke-width="0.551784" stroke-miterlimit="10"/>
<path d="M180.544 155.989C183.046 155.989 185.074 153.961 185.074 151.46C185.074 148.958 183.046 146.93 180.544 146.93C178.043 146.93 176.015 148.958 176.015 151.46C176.015 153.961 178.043 155.989 180.544 155.989Z" fill="#3F3D56"/>
<path d="M161.216 66.7659C170.968 66.7659 178.873 58.8605 178.873 49.1088C178.873 39.357 170.968 31.4517 161.216 31.4517C151.464 31.4517 143.559 39.357 143.559 49.1088C143.559 58.8605 151.464 66.7659 161.216 66.7659Z" fill="#FF6584"/>
<path d="M132.081 171.863C144.118 171.863 153.877 162.105 153.877 150.068C153.877 138.03 144.118 128.272 132.081 128.272C120.044 128.272 110.286 138.03 110.286 150.068C110.286 162.105 120.044 171.863 132.081 171.863Z" fill="#2F2E41"/>
<path d="M135.392 179.036H142.013V167.173H135.392V179.036Z" fill="#2F2E41"/>
<path d="M122.149 179.036H128.77V167.173H122.149V179.036Z" fill="#2F2E41"/>
<path d="M125.115 182.07C127.754 180.546 129.43 178.509 128.859 177.519C128.287 176.529 125.685 176.962 123.046 178.486C120.406 180.01 118.73 182.047 119.302 183.037C119.873 184.026 122.476 183.594 125.115 182.07Z" fill="#2F2E41"/>
<path d="M138.082 182.07C140.721 180.546 142.397 178.509 141.826 177.519C141.254 176.529 138.652 176.962 136.013 178.486C133.373 180.01 131.697 182.047 132.269 183.037C132.84 184.026 135.443 183.594 138.082 182.07Z" fill="#2F2E41"/>
<path d="M131.529 151.999C135.643 151.999 138.978 148.664 138.978 144.55C138.978 140.436 135.643 137.101 131.529 137.101C127.415 137.101 124.08 140.436 124.08 144.55C124.08 148.664 127.415 151.999 131.529 151.999Z" fill="white"/>
<path d="M128.992 143.86C130.364 143.86 131.475 142.748 131.475 141.377C131.475 140.006 130.364 138.894 128.992 138.894C127.621 138.894 126.509 140.006 126.509 141.377C126.509 142.748 127.621 143.86 128.992 143.86Z" fill="#3F3D56"/>
<path d="M153.223 129.799C154.983 121.917 149.358 113.953 140.658 112.01C131.959 110.068 123.48 114.882 121.72 122.764C119.96 130.646 125.725 133.552 134.425 135.495C143.124 137.438 151.463 137.68 153.223 129.799Z" fill="#6C63FF"/>
<path d="M123.004 146.864C123.747 145.126 119.864 141.799 114.331 139.43C108.798 137.062 103.71 136.55 102.967 138.287C102.223 140.024 106.106 143.352 111.639 145.721C117.172 148.089 122.26 148.601 123.004 146.864Z" fill="#2F2E41"/>
<path d="M163.836 161.486C164.579 159.749 160.696 156.421 155.163 154.053C149.63 151.684 144.542 151.173 143.798 152.91C143.055 154.647 146.938 157.975 152.471 160.343C158.004 162.711 163.092 163.223 163.836 161.486Z" fill="#2F2E41"/>
<path d="M136.441 159.586C136.441 160.903 135.918 162.166 134.987 163.098C134.056 164.029 132.792 164.552 131.475 164.552C130.158 164.552 128.895 164.029 127.964 163.098C127.032 162.166 126.509 160.903 126.509 159.586C126.509 156.843 128.733 156.275 131.475 156.275C134.218 156.275 136.441 156.843 136.441 159.586Z" fill="white"/>
<path d="M106.103 143.56V111.531" stroke="#6C63FF" stroke-width="0.551784" stroke-miterlimit="10"/>
<path d="M106.103 116.06C108.605 116.06 110.633 114.032 110.633 111.531C110.633 109.029 108.605 107.001 106.103 107.001C103.602 107.001 101.574 109.029 101.574 111.531C101.574 114.032 103.602 116.06 106.103 116.06Z" fill="#6C63FF"/>
<path d="M106.103 131.271C106.103 131.271 105.456 117.354 92.1916 118.972L106.103 131.271Z" fill="#6C63FF"/>
<path d="M63.5194 121.63L65.2751 125.769H66.8301L64.6229 115.285C64.6229 108.555 61.375 102.869 54.6458 102.869H54.6457C52.3894 102.869 50.2254 103.766 48.63 105.361C47.0345 106.957 46.1382 109.121 46.1382 111.377V121.659C46.1382 122.199 46.2445 122.733 46.451 123.232C46.6575 123.73 46.9602 124.183 47.3418 124.565C47.7234 124.946 48.1765 125.249 48.6751 125.456C49.1737 125.662 49.7081 125.769 50.2477 125.769H62.3124L63.5194 121.63Z" fill="#2F2E41"/>
<path d="M70.8616 163.248C70.8616 163.248 93.7606 160.489 96.5195 165.455C99.2785 170.421 97.3472 174.56 93.7606 177.043C90.174 179.526 70.3098 190.837 70.3098 190.837L68.6545 193.596L65.0679 193.045L61.4813 189.734L63.1366 186.699C63.1366 186.699 76.9312 178.422 77.2071 176.215C77.2071 176.215 64.5161 182.009 63.1366 180.905C61.7572 179.802 46.3072 174.56 48.7902 171.525C51.2733 168.49 57.6188 164.076 57.6188 164.076L70.8616 163.248Z" fill="#2F2E41"/>
<path opacity="0.1" d="M70.8616 163.248C70.8616 163.248 93.7606 160.489 96.5195 165.455C99.2785 170.421 97.3472 174.56 93.7606 177.043C90.174 179.526 70.3098 190.837 70.3098 190.837L68.6545 193.596L65.0679 193.045L61.4813 189.734L63.1366 186.699C63.1366 186.699 76.9312 178.422 77.2071 176.215C77.2071 176.215 64.5161 182.009 63.1366 180.905C61.7572 179.802 46.3072 174.56 48.7902 171.525C51.2733 168.49 57.6188 164.076 57.6188 164.076L70.8616 163.248Z" fill="black"/>
<path d="M67.8267 191.113C67.8267 191.113 71.9651 190.286 71.1374 193.045C70.3098 195.803 69.758 201.321 71.1374 202.701C72.5169 204.08 76.9312 210.15 72.5169 210.702C68.1026 211.253 63.4125 205.736 63.4125 205.736C63.4125 205.736 60.3777 196.907 58.1705 196.079C55.9634 195.252 53.7563 191.941 54.8598 191.113C55.9634 190.286 62.5848 185.044 63.1366 185.32C63.6884 185.595 63.4125 188.63 63.4125 188.63C63.4125 188.63 65.6196 192.217 67.8267 191.113Z" fill="#2F2E41"/>
<path d="M68.2406 132.21L78.4486 139.384C78.4486 139.384 86.1736 131.383 86.1736 126.692C86.1736 122.002 90.3119 113.174 92.2432 116.76C94.1744 120.347 90.036 128.9 90.036 128.9L82.3111 147.108C82.3111 147.108 77.8968 147.936 75.4138 146.005C72.9307 144.074 66.0334 140.211 66.0334 140.211L68.2406 132.21Z" fill="#FFB9B9"/>
<path d="M58.1705 120.209C62.4369 120.209 65.8954 116.75 65.8954 112.484C65.8954 108.218 62.4369 104.759 58.1705 104.759C53.9041 104.759 50.4455 108.218 50.4455 112.484C50.4455 116.75 53.9041 120.209 58.1705 120.209Z" fill="#FFB9B9"/>
<path d="M62.171 117.864C62.171 117.864 59.4121 125.037 60.5157 126.692C61.6192 128.348 62.9987 128.348 64.1023 128.9C64.6541 129.176 70.4478 131.383 70.4478 133.038C70.4212 134.102 70.1372 135.143 69.6201 136.073L68.7924 140.763L61.8951 145.177L52.7907 144.074L45.8934 140.211C45.8934 140.211 44.7898 130.003 47.8246 128.348C50.8595 126.692 54.4461 122.83 54.1702 121.451C53.8943 120.071 53.6184 116.76 53.6184 116.76L62.171 117.864Z" fill="#FFB9B9"/>
<path d="M73.7584 134.969C73.7584 134.969 69.62 139.108 69.62 139.659C69.62 140.211 72.3789 142.694 70.4477 146.005C68.5164 149.316 68.5164 157.592 68.5164 157.592L61.895 158.972L49.4799 157.868L47.5486 138.832C47.5486 138.832 52.5147 139.659 53.6183 140.487C54.7218 141.315 57.7566 139.384 59.9638 139.384C62.1709 139.384 68.5164 138.28 68.5164 138.28L67.9647 136.073L70.1718 132.21L73.7584 134.969Z" fill="#6C63FF"/>
<path d="M58.1706 164.352C58.1706 164.352 86.0356 151.937 88.2428 159.937C90.4499 167.938 90.7258 187.251 90.7258 187.251C90.7258 187.251 92.1053 200.494 93.7606 201.873C95.416 203.253 93.7606 207.391 93.7606 207.391L89.6222 208.77L85.7598 207.115L84.1044 202.701C84.1044 202.701 83.5526 192.769 81.3455 187.803C79.1383 182.837 79.1383 171.249 79.4142 170.697C79.4142 170.697 68.6544 183.94 58.1706 183.112C47.6867 182.285 46.1693 179.94 46.1693 179.94C46.1693 179.94 51.2733 164.352 58.1706 164.352Z" fill="#2F2E41"/>
<path d="M92.1052 203.253C92.1052 203.253 93.2088 199.39 95.6918 202.425C98.1749 205.46 109.486 210.15 109.762 210.702C110.038 211.253 115.004 214.288 109.211 218.427C103.417 222.565 95.6918 218.427 95.6918 218.427C95.6918 218.427 89.0704 216.219 87.4151 216.495C85.7597 216.771 82.449 215.116 82.1731 213.736C81.8972 212.357 82.5489 200.23 84.0164 201.465C85.4838 202.701 87.1392 206.011 87.1392 206.011C87.1392 206.011 92.657 207.391 92.1052 203.253Z" fill="#2F2E41"/>
<path d="M67.5508 156.903C67.5508 156.903 69.0682 156.765 68.7924 160.351C68.7924 160.351 59.2741 163.248 57.6187 165.731C55.9634 168.214 48.7902 175.663 47.6866 180.905C47.6866 180.905 39.6857 178.974 44.1 165.179L49.29 153.927C49.29 153.927 52.3768 160.213 67.5508 156.903Z" fill="#2F2E41"/>
<path d="M61.057 163.608L51.687 159.524C51.687 159.524 47.2728 150.419 47.2728 146.005C47.2193 143.465 47.0235 140.93 46.6865 138.412C46.4779 136.828 46.6597 135.217 47.2158 133.72C47.772 132.222 48.6857 130.883 49.8775 129.82C50.8518 128.968 51.9457 128.348 53.0665 128.348C53.0665 128.348 56.3772 134.417 55.8254 139.935C55.2737 145.453 56.6531 153.73 56.6531 153.73L69.1197 160.402" fill="#FFB9B9"/>
<path opacity="0.1" d="M61.057 163.608L51.687 159.524C51.687 159.524 47.2728 150.419 47.2728 146.005C47.2728 143.706 56.929 136.901 56.3772 142.418C55.8254 147.936 56.6531 153.73 56.6531 153.73L69.1196 160.402" fill="black"/>
<path d="M56.6531 141.867L55.7735 145.591L50.8594 147.936H46.721L44.7897 139.108C44.7897 139.108 48.1995 138.386 49.9433 139.299C51.687 140.211 55.7819 140.43 55.7819 140.43L56.6531 141.867Z" fill="#6C63FF"/>
<path d="M61.2302 103.238C59.7334 102.859 56.1844 102.869 55.6651 102.869C54.414 102.869 53.1751 103.116 52.0193 103.595C50.8634 104.073 49.8131 104.775 48.9285 105.66C48.0438 106.545 47.3421 107.595 46.8633 108.751C46.3845 109.906 46.1381 111.145 46.1381 112.396L42.5515 125.769H49.5327L50.8283 120.802L52.6676 125.769H56.182L56.4841 122.784L57.6735 125.769H61.5881C58.6563 119.135 57.0967 113.088 60.9485 109.356C63.5495 109.711 65.7431 109.014 66.1006 107.604C66.5124 105.979 64.3319 104.025 61.2302 103.238Z" fill="#2F2E41"/>
</g>
<defs>
<clipPath id="clip0_8_516">
<rect width="206" height="220.266" fill="white"/>
</clipPath>
</defs>
</svg>
